# xmcd
#
# Track frame offsets:
#	150
#	15092
#	34043
#	55325
#	71903
#	78691
#	98481
#	104970
#	121409
#	132219
#	160764
#
# Disc length: 2261 seconds
#
# Revision: 1
# Processed by: cddbd v1.5.2PL0 Copyright (c) Steve Scherf et al.
# Submitted via: audiograbber 1.83.01
#
DISCID=8e08d30b
DTITLE=Johnny Pettit - Suzy Blues
DYEAR=2000
DGENRE=Blues
TTITLE0=Ugly Man
TTITLE1=The Footwear Blues
TTITLE2=You're Gonna Reap Just What You Sow
TTITLE3=Cast Your Fate To The Wind
TTITLE4=Garden Gate
TTITLE5=Don't Worry Baby
TTITLE6=Suzy Blues
TTITLE7=Walking By Myself
TTITLE8=The Neighbour Song
TTITLE9=I Just Wanna Make Love To You
TTITLE10=Asshton Park
EXTD=
EXTT0=
EXTT1=
EXTT2=
EXTT3=
EXTT4=
EXTT5=
EXTT6=
EXTT7=
EXTT8=
EXTT9=
EXTT10=
PLAYORDER=
